<!-- 方案四：神经元网络 - 象征AI与人类思维的连接 -->
<svg width="32" height="32" viewBox="0 0 32 32" fill="none" xmlns="http://www.w3.org/2000/svg">
  <!-- 外圆背景 -->
  <circle cx="16" cy="16" r="15" fill="#2563EB" stroke="#1d4ed8" stroke-width="2"/>
  
  <!-- 中心节点 -->
  <circle cx="16" cy="16" r="3" fill="#f97316"/>
  
  <!-- 周围节点 -->
  <circle cx="10" cy="10" r="2" fill="#fbbf24"/>
  <circle cx="22" cy="10" r="2" fill="#fbbf24"/>
  <circle cx="10" cy="22" r="2" fill="#fbbf24"/>
  <circle cx="22" cy="22" r="2" fill="#fbbf24"/>
  <circle cx="16" cy="8" r="1.5" fill="#ffffff"/>
  <circle cx="16" cy="24" r="1.5" fill="#ffffff"/>
  <circle cx="8" cy="16" r="1.5" fill="#ffffff"/>
  <circle cx="24" cy="16" r="1.5" fill="#ffffff"/>
  
  <!-- 连接线 -->
  <path d="M16 16 L10 10" stroke="#f97316" stroke-width="1.5" opacity="0.8"/>
  <path d="M16 16 L22 10" stroke="#f97316" stroke-width="1.5" opacity="0.8"/>
  <path d="M16 16 L10 22" stroke="#f97316" stroke-width="1.5" opacity="0.8"/>
  <path d="M16 16 L22 22" stroke="#f97316" stroke-width="1.5" opacity="0.8"/>
  <path d="M16 16 L16 8" stroke="#fbbf24" stroke-width="1" opacity="0.6"/>
  <path d="M16 16 L16 24" stroke="#fbbf24" stroke-width="1" opacity="0.6"/>
  <path d="M16 16 L8 16" stroke="#fbbf24" stroke-width="1" opacity="0.6"/>
  <path d="M16 16 L24 16" stroke="#fbbf24" stroke-width="1" opacity="0.6"/>
  
  <!-- 小连接线 -->
  <path d="M10 10 L16 8" stroke="#ffffff" stroke-width="0.8" opacity="0.5"/>
  <path d="M22 10 L16 8" stroke="#ffffff" stroke-width="0.8" opacity="0.5"/>
  <path d="M10 22 L16 24" stroke="#ffffff" stroke-width="0.8" opacity="0.5"/>
  <path d="M22 22 L16 24" stroke="#ffffff" stroke-width="0.8" opacity="0.5"/>
</svg>

